<?xml version="1.0" encoding="utf-8"?><svg width="40" height="18" viewBox="0 0 40 18" xmlns="http://www.w3.org/2000/svg" xmlns:xlink="http://www.w3.org/1999/xlink"><svg id="icon-tab-next" width="11" height="16" viewBox="-1 -1 11 16" x="18" xmlns="http://www.w3.org/2000/svg"><style>.aast0{fill:#7f7f7f}</style><g id="aaXMLID_2_"><g id="aaXMLID_22_"><path id="aaXMLID_24_" class="aast0" d="M9 7L7.6 5.6 1.9 0 .5 1.4 6.2 7 .5 12.6 1.9 14l5.7-5.6z"/></g></g></svg><svg id="icon-tab-prev" width="11" height="16" viewBox="-1 -1 11 16" x="29" xmlns="http://www.w3.org/2000/svg"><style>.abst0{fill:#7f7f7f}</style><g id="abXMLID_2_"><g id="abXMLID_22_"><path id="abXMLID_24_" class="abst0" d="M0 7l1.4 1.4L7.1 14l1.4-1.4L2.8 7l5.7-5.6L7.1 0 1.4 5.6z"/></g></g></svg><svg id="promotion-icon-calculator-hover" width="18" height="18" viewBox="-1 -1 18 18" xmlns="http://www.w3.org/2000/svg"><style>.acst0{fill-rule:evenodd;clip-rule:evenodd;fill:#fff}</style><g id="acXMLID_112_"><path id="acXMLID_113_" class="acst0" d="M4 9h1V8h1V7H5V6H4v1H3v1h1v1zm8 2h-1v1h1v-1zm1-4h-3v1h3V7zM3 10v1h1v-1H3zm10 0h-1v1h1v-1zm-9 2H3v1h1v-1zm2 1v-1H5v1h1zm8-13H2C.9 0 0 .9 0 2v12c0 1.1.9 2 2 2h12c1.1 0 2-.9 2-2V2c0-1.1-.9-2-2-2zm1 13c0 1.9-.9 2-2 2H3c-2.1 0-2-.9-2-2V4h14v9zm0-10H1c0-1.1 0-2 2-2h10c2 0 2 .9 2 2zm-9 7H5v1h1v-1zm-1 1H4v1h1v-1zm6 1h-1v1h1v-1z"/></g></svg></svg>